  0
SECTION
  2
HEADER
  9
$ACADVER
  1
AC1009
  9
$DWGCODEPAGE
  3
undefined
  9
$INSBASE
 10
0.0
 20
0.0
 30
0.0
  9
$EXTMIN
 10
1.000000000000000E+20
 20
1.000000000000000E+20
 30
1.000000000000000E+20
  9
$EXTMAX
 10
-1.000000000000000E+20
 20
-1.000000000000000E+20
 30
-1.000000000000000E+20
  9
$LIMMIN
 10
0.0
 20
0.0
  9
$LIMMAX
 10
12.0
 20
9.0
  9
$ORTHOMODE
 70
     0
  9
$REGENMODE
 70
     1
  9
$FILLMODE
 70
     1
  9
$QTEXTMODE
 70
     0
  9
$MIRRTEXT
 70
     1
  9
$DRAGMODE
 70
     2
  9
$LTSCALE
 40
1.0
  9
$OSMODE
 70
    37
  9
$ATTMODE
 70
     1
  9
$TEXTSIZE
 40
0.2
  9
$TRACEWID
 40
0.05
  9
$TEXTSTYLE
  7
STANDARD
  9
$CLAYER
  8
0
  9
$CELTYPE
  6
BYLAYER
  9
$CECOLOR
 62
   256
  9
$DIMSCALE
 40
1.0
  9
$DIMASZ
 40
0.18
  9
$DIMEXO
 40
0.0625
  9
$DIMDLI
 40
0.38
  9
$DIMRND
 40
0.0
  9
$DIMDLE
 40
0.0
  9
$DIMEXE
 40
0.18
  9
$DIMTP
 40
0.0
  9
$DIMTM
 40
0.0
  9
$DIMTXT
 40
0.18
  9
$DIMCEN
 40
0.09
  9
$DIMTSZ
 40
0.0
  9
$DIMTOL
 70
     0
  9
$DIMLIM
 70
     0
  9
$DIMTIH
 70
     1
  9
$DIMTOH
 70
     1
  9
$DIMSE1
 70
     0
  9
$DIMSE2
 70
     0
  9
$DIMTAD
 70
     0
  9
$DIMZIN
 70
     0
  9
$DIMBLK
  1

  9
$DIMASO
 70
     1
  9
$DIMSHO
 70
     1
  9
$DIMPOST
  1

  9
$DIMAPOST
  1

  9
$DIMALT
 70
     0
  9
$DIMALTD
 70
     2
  9
$DIMALTF
 40
25.4
  9
$DIMLFAC
 40
1.0
  9
$DIMTOFL
 70
     0
  9
$DIMTVP
 40
0.0
  9
$DIMTIX
 70
     0
  9
$DIMSOXD
 70
     0
  9
$DIMSAH
 70
     0
  9
$DIMBLK1
  1

  9
$DIMBLK2
  1

  9
$DIMSTYLE
  2
STANDARD
  9
$DIMCLRD
 70
     0
  9
$DIMCLRE
 70
     0
  9
$DIMCLRT
 70
     0
  9
$DIMTFAC
 40
1.0
  9
$DIMGAP
 40
0.09
  9
$LUNITS
 70
     2
  9
$LUPREC
 70
     4
  9
$SKETCHINC
 40
0.1
  9
$FILLETRAD
 40
0.5
  9
$AUNITS
 70
     0
  9
$AUPREC
 70
     0
  9
$MENU
  1
.
  9
$ELEVATION
 40
0.0
  9
$PELEVATION
 40
0.0
  9
$THICKNESS
 40
0.0
  9
$LIMCHECK
 70
     0
  9
$CHAMFERA
 40
0.0
  9
$CHAMFERB
 40
0.0
  9
$SKPOLY
 70
     0
  9
$TDCREATE
 40
2457146.053518518
  9
$TDUPDATE
 40
2457146.053518518
  9
$TDINDWG
 40
0.0000000116
  9
$TDUSRTIMER
 40
0.0000000116
  9
$USRTIMER
 70
     1
  9
$ANGBASE
 50
0.0
  9
$ANGDIR
 70
     0
  9
$PDMODE
 70
     0
  9
$PDSIZE
 40
0.0
  9
$PLINEWID
 40
0.0
  9
$COORDS
 70
     1
  9
$SPLFRAME
 70
     0
  9
$SPLINETYPE
 70
     6
  9
$SPLINESEGS
 70
     8
  9
$ATTDIA
 70
     0
  9
$ATTREQ
 70
     1
  9
$HANDLING
 70
     1
  9
$HANDSEED
  5
10000117
  9
$SURFTAB1
 70
     6
  9
$SURFTAB2
 70
     6
  9
$SURFTYPE
 70
     6
  9
$SURFU
 70
     6
  9
$SURFV
 70
     6
  9
$UCSNAME
  2

  9
$UCSORG
 10
0.0
 20
0.0
 30
0.0
  9
$UCSXDIR
 10
1.0
 20
0.0
 30
0.0
  9
$UCSYDIR
 10
0.0
 20
1.0
 30
0.0
  9
$PUCSNAME
  2

  9
$PUCSORG
 10
0.0
 20
0.0
 30
0.0
  9
$PUCSXDIR
 10
1.0
 20
0.0
 30
0.0
  9
$PUCSYDIR
 10
0.0
 20
1.0
 30
0.0
  9
$USERI1
 70
     0
  9
$USERI2
 70
     0
  9
$USERI3
 70
     0
  9
$USERI4
 70
     0
  9
$USERI5
 70
     0
  9
$USERR1
 40
0.0
  9
$USERR2
 40
0.0
  9
$USERR3
 40
0.0
  9
$USERR4
 40
0.0
  9
$USERR5
 40
0.0
  9
$WORLDVIEW
 70
     1
  9
$SHADEDGE
 70
     3
  9
$SHADEDIF
 70
    70
  9
$TILEMODE
 70
     1
  9
$MAXACTVP
 70
    64
  9
$PLIMCHECK
 70
     0
  9
$PEXTMIN
 10
1.000000000000000E+20
 20
1.000000000000000E+20
 30
1.000000000000000E+20
  9
$PEXTMAX
 10
-1.000000000000000E+20
 20
-1.000000000000000E+20
 30
-1.000000000000000E+20
  9
$PLIMMIN
 10
0.0
 20
0.0
  9
$PLIMMAX
 10
12.0
 20
9.0
  9
$UNITMODE
 70
     0
  9
$VISRETAIN
 70
     1
  9
$PLINEGEN
 70
     0
  9
$PSLTSCALE
 70
     1
  0
ENDSEC
  0
SECTION
  2
TABLES
  0
TABLE
  2
VPORT
 70
     1
  0
VPORT
  2
*ACTIVE
 70
     0
 10
0.0
 20
0.0
 11
1.0
 21
1.0
 12
10.42990654205607
 22
4.5
 13
0.0
 23
0.0
 14
0.5
 24
0.5
 15
0.5
 25
0.5
 16
0.0
 26
0.0
 36
1.0
 17
0.0
 27
0.0
 37
0.0
 40
9.0
 41
1.972972972850329
 42
50.0
 43
0.0
 44
0.0
 50
0.0
 51
0.0
 71
     0
 72
   100
 73
     1
 74
     3
 75
     0
 76
     0
 77
     0
 78
     0
  0
ENDTAB
  0
TABLE
  2
LTYPE
 70
     5
  0
LTYPE
  2
CONTINUOUS
 70
     0
  3
Solid line
 72
    65
 73
     0
 40
0.0
  0
LTYPE
  2
HIDDEN
 70
     0
  3
Hidden line ____ ____ ____ ____ 
 72
    83
 73
     2
 40
0.125
 49
0.25
 49
-0.125
  0
LTYPE
  2
PHANTOM
 70
     0
  3
Phantom line ______  __  __  ______  __  __
 72
    83
 73
     6
 40
0.5
 49
0.625
 49
-0.125
 49
0.125
 49
-0.125
 49
0.125
 49
-0.125
  0
LTYPE
  2
CENTER
 70
     0
  3
Center line ____ _ ____ _ ____ _
 72
    83
 73
     4
 40
0.5
 49
0.625
 49
-0.125
 49
0.125
 49
-0.125
  0
LTYPE
  2
DASHED
 70
     0
  3
Dashed line __ __ __ __
 72
    83
 73
     2
 40
0.25
 49
0.5
 49
-0.25
  0
ENDTAB
  0
TABLE
  2
LAYER
 70
     3
  0
LAYER
  2
0
 70
     0
 62
     7
  6
CONTINUOUS
  0
LAYER
  2
HIDDEN
 70
     0
 62
    -7
  6
HIDDEN
  0
LAYER
  2
VISIBLE
 70
     0
 62
     7
  6
CONTINUOUS
  0
ENDTAB
  0
TABLE
  2
STYLE
 70
     2
  0
STYLE
  2
STANDARD
 70
     0
 40
0.0
 41
1.0
 50
0.0
 71
     0
 42
0.2
  3
txt
  4

  0
STYLE
  2
ODATTFSTYLE
 70
     0
 40
0.0
 41
1.0
 50
0.0
 71
     0
 42
0.2
  3
Verdana.ttf
  4

  0
ENDTAB
  0
TABLE
  2
VIEW
 70
     0
  0
ENDTAB
  0
TABLE
  2
UCS
 70
     0
  0
ENDTAB
  0
TABLE
  2
APPID
 70
     1
  0
APPID
  2
ACAD
 70
     0
  0
ENDTAB
  0
TABLE
  2
DIMSTYLE
 70
     1
  0
DIMSTYLE
  2
STANDARD
 70
     0
  3

  4

  5

  6

  7

 40
1.0
 41
0.18
 42
0.0625
 43
0.38
 44
0.18
 45
0.0
 46
0.0
 47
0.0
 48
0.0
140
0.18
141
0.09
142
0.0
143
25.4
144
1.0
145
0.0
146
1.0
147
0.09
 71
     0
 72
     0
 73
     1
 74
     1
 75
     0
 76
     0
 77
     0
 78
     0
170
     0
171
     2
172
     0
173
     0
174
     0
175
     0
176
     0
177
     0
178
     0
  0
ENDTAB
  0
ENDSEC
  0
SECTION
  2
BLOCKS
  0
BLOCK
  8
0
  2
$MODEL_SPACE
 70
     0
 10
0.0
 20
0.0
 30
0.0
  3
$MODEL_SPACE
  1

  0
ENDBLK
  5
21
  8
0
  0
BLOCK
 67
     1
  8
0
  2
$PAPER_SPACE
 70
     0
 10
0.0
 20
0.0
 30
0.0
  3
$PAPER_SPACE
  1

  0
ENDBLK
  5
1D
 67
     1
  8
0
  0
ENDSEC
  0
SECTION
  2
ENTITIES
  0
LINE
  5
F45C7
  8
VISIBLE
 10
0.1729535703387648
 20
-0.6155618358086814
 30
0.0
 11
1.672953570338765
 21
-0.615561835808681
 31
0.0
  0
LINE
  5
F45C8
  8
VISIBLE
 10
1.672953570338765
 20
-0.615561835808681
 30
0.0
 11
1.672953570338765
 21
-1.615561835808681
 31
0.0
  0
LINE
  5
F45C9
  8
VISIBLE
 10
1.672953570338765
 20
-1.615561835808681
 30
0.0
 11
0.172953570338765
 21
-1.615561835808681
 31
0.0
  0
LINE
  5
F45CA
  8
VISIBLE
 10
0.172953570338765
 20
-1.615561835808681
 30
0.0
 11
0.172953570338765
 21
-1.365561835808681
 31
0.0
  0
LINE
  5
F45CB
  8
VISIBLE
 10
0.172953570338765
 20
-1.365561835808681
 30
0.0
 11
0.3109535703387649
 21
-1.365561835808681
 31
0.0
  0
LINE
  5
F45CC
  8
VISIBLE
 10
0.3109535703387649
 20
-1.365561835808681
 30
0.0
 11
0.3109535703387648
 21
-1.184561835808682
 31
0.0
  0
LINE
  5
F45CD
  8
VISIBLE
 10
0.3109535703387649
 20
-1.184561835808682
 30
0.0
 11
0.4859535703387647
 21
-1.184561835808682
 31
0.0
  0
LINE
  5
F45CE
  8
VISIBLE
 10
0.4859535703387647
 20
-1.184561835808681
 30
0.0
 11
0.4859535703387647
 21
-1.271811835808681
 31
0.0
  0
LINE
  5
F45CF
  8
VISIBLE
 10
0.4859535703387647
 20
-1.271811835808681
 30
0.0
 11
0.6109535703387647
 21
-1.271811835808681
 31
0.0
  0
LINE
  5
F45D0
  8
VISIBLE
 10
0.6109535703387647
 20
-1.271811835808681
 30
0.0
 11
0.6109535703387647
 21
-1.184561835808681
 31
0.0
  0
LINE
  5
F45D1
  8
VISIBLE
 10
0.6109535703387646
 20
-1.184561835808682
 30
0.0
 11
0.6859535703387647
 21
-1.184561835808682
 31
0.0
  0
LINE
  5
F45D2
  8
VISIBLE
 10
0.6859535703387647
 20
-1.184561835808682
 30
0.0
 11
0.6859535703387647
 21
-1.046561835808681
 31
0.0
  0
LINE
  5
F45D3
  8
VISIBLE
 10
0.6859535703387647
 20
-1.046561835808681
 30
0.0
 11
0.6109535703387647
 21
-1.046561835808681
 31
0.0
  0
LINE
  5
F45D4
  8
VISIBLE
 10
0.6109535703387647
 20
-1.046561835808681
 30
0.0
 11
0.6109535703387647
 21
-0.9593118358086814
 31
0.0
  0
LINE
  5
F45D5
  8
VISIBLE
 10
0.6109535703387647
 20
-0.9593118358086814
 30
0.0
 11
0.4859535703387647
 21
-0.9593118358086814
 31
0.0
  0
LINE
  5
F45D6
  8
VISIBLE
 10
0.4859535703387647
 20
-0.9593118358086814
 30
0.0
 11
0.4859535703387647
 21
-1.046561835808681
 31
0.0
  0
LINE
  5
F45D7
  8
VISIBLE
 10
0.4859535703387647
 20
-1.046561835808681
 30
0.0
 11
0.3109535703387648
 21
-1.046561835808681
 31
0.0
  0
LINE
  5
F45D8
  8
VISIBLE
 10
0.3109535703387648
 20
-1.046561835808681
 30
0.0
 11
0.3109535703387648
 21
-0.8655618358086814
 31
0.0
  0
LINE
  5
F45D9
  8
VISIBLE
 10
0.3109535703387648
 20
-0.8655618358086814
 30
0.0
 11
0.1729535703387648
 21
-0.8655618358086814
 31
0.0
  0
LINE
  5
F45DA
  8
VISIBLE
 10
0.1729535703387649
 20
-0.8655618358086814
 30
0.0
 11
0.1729535703387648
 21
-0.6155618358086814
 31
0.0
  0
LINE
  5
F45DB
  8
VISIBLE
 10
0.7659535703387647
 20
-0.6155618358086812
 30
0.0
 11
0.7885413232097557
 21
-1.046561835808681
 31
0.0
  0
LINE
  5
F45DC
  8
VISIBLE
 10
0.7885413232097573
 20
-1.046561835808682
 30
0.0
 11
0.8111290760807479
 21
-0.6155618358086814
 31
0.0
  0
LINE
  5
F45DD
  8
VISIBLE
 10
0.8459535703387645
 20
-0.6155618358086812
 30
0.0
 11
0.8685413232097556
 21
-1.046561835808681
 31
0.0
  0
LINE
  5
F45DE
  8
VISIBLE
 10
0.8685413232097573
 20
-1.046561835808682
 30
0.0
 11
0.8911290760807479
 21
-0.6155618358086812
 31
0.0
  0
LINE
  5
F45DF
  8
VISIBLE
 10
0.9259535703387645
 20
-0.6155618358086811
 30
0.0
 11
0.9485413232097555
 21
-1.046561835808681
 31
0.0
  0
LINE
  5
F45E0
  8
VISIBLE
 10
0.9485413232097574
 20
-1.046561835808682
 30
0.0
 11
0.9711290760807478
 21
-0.6155618358086812
 31
0.0
  0
LINE
  5
F45E1
  8
VISIBLE
 10
1.005953570338765
 20
-0.6155618358086811
 30
0.0
 11
1.028541323209755
 21
-1.046561835808681
 31
0.0
  0
LINE
  5
F45E2
  8
VISIBLE
 10
1.028541323209757
 20
-1.046561835808682
 30
0.0
 11
1.051129076080748
 21
-0.6155618358086811
 31
0.0
  0
LINE
  5
F45E3
  8
VISIBLE
 10
1.085953570338764
 20
-0.615561835808681
 30
0.0
 11
1.108541323209756
 21
-1.046561835808681
 31
0.0
  0
LINE
  5
F45E4
  8
VISIBLE
 10
1.108541323209757
 20
-1.046561835808682
 30
0.0
 11
1.131129076080748
 21
-0.615561835808681
 31
0.0
  0
LINE
  5
F45E5
  8
VISIBLE
 10
1.165953570338764
 20
-0.615561835808681
 30
0.0
 11
1.188541323209755
 21
-1.046561835808681
 31
0.0
  0
LINE
  5
F45E6
  8
VISIBLE
 10
1.188541323209757
 20
-1.046561835808682
 30
0.0
 11
1.211129076080748
 21
-0.615561835808681
 31
0.0
  0
LINE
  5
F45E7
  8
VISIBLE
 10
1.245953570338764
 20
-0.6155618358086808
 30
0.0
 11
1.268541323209755
 21
-1.046561835808681
 31
0.0
  0
LINE
  5
F45E8
  8
VISIBLE
 10
1.268541323209757
 20
-1.046561835808682
 30
0.0
 11
1.291129076080747
 21
-0.615561835808681
 31
0.0
  0
LINE
  5
F45E9
  8
VISIBLE
 10
1.325953570338764
 20
-0.6155618358086808
 30
0.0
 11
1.348541323209755
 21
-1.046561835808681
 31
0.0
  0
LINE
  5
F45EA
  8
VISIBLE
 10
1.348541323209757
 20
-1.046561835808681
 30
0.0
 11
1.371129076080748
 21
-0.615561835808681
 31
0.0
  0
LINE
  5
F45EB
  8
VISIBLE
 10
1.405953570338764
 20
-0.6155618358086808
 30
0.0
 11
1.428541323209755
 21
-1.046561835808681
 31
0.0
  0
LINE
  5
F45EC
  8
VISIBLE
 10
1.428541323209757
 20
-1.046561835808681
 30
0.0
 11
1.451129076080747
 21
-0.6155618358086808
 31
0.0
  0
LINE
  5
F45ED
  8
VISIBLE
 10
1.485953570338764
 20
-0.6155618358086807
 30
0.0
 11
1.508541323209755
 21
-1.046561835808681
 31
0.0
  0
LINE
  5
F45EE
  8
VISIBLE
 10
1.508541323209757
 20
-1.046561835808681
 30
0.0
 11
1.531129076080747
 21
-0.6155618358086808
 31
0.0
  0
LINE
  5
F45EF
  8
VISIBLE
 10
0.7659535703387625
 20
-1.615561835808681
 30
0.0
 11
0.7885413232097531
 21
-1.18456183580868
 31
0.0
  0
LINE
  5
F45F0
  8
VISIBLE
 10
0.7885413232097557
 20
-1.18456183580868
 30
0.0
 11
0.8111290760807485
 21
-1.615561835808712
 31
0.0
  0
LINE
  5
F45F1
  8
VISIBLE
 10
0.8459535703387625
 20
-1.615561835808682
 30
0.0
 11
0.8685413232097532
 21
-1.18456183580868
 31
0.0
  0
LINE
  5
F45F2
  8
VISIBLE
 10
0.8685413232097556
 20
-1.18456183580868
 30
0.0
 11
0.8911290760807484
 21
-1.615561835808713
 31
0.0
  0
LINE
  5
F45F3
  8
VISIBLE
 10
0.9259535703387625
 20
-1.615561835808683
 30
0.0
 11
0.9485413232097532
 21
-1.184561835808681
 31
0.0
  0
LINE
  5
F45F4
  8
VISIBLE
 10
0.9485413232097556
 20
-1.184561835808681
 30
0.0
 11
0.9711290760807484
 21
-1.615561835808714
 31
0.0
  0
LINE
  5
F45F5
  8
VISIBLE
 10
1.005953570338762
 20
-1.615561835808684
 30
0.0
 11
1.028541323209753
 21
-1.184561835808682
 31
0.0
  0
LINE
  5
F45F6
  8
VISIBLE
 10
1.028541323209756
 20
-1.184561835808682
 30
0.0
 11
1.051129076080748
 21
-1.615561835808714
 31
0.0
  0
LINE
  5
F45F7
  8
VISIBLE
 10
1.085953570338762
 20
-1.615561835808685
 30
0.0
 11
1.108541323209753
 21
-1.184561835808683
 31
0.0
  0
LINE
  5
F45F8
  8
VISIBLE
 10
1.108541323209756
 20
-1.184561835808683
 30
0.0
 11
1.131129076080748
 21
-1.615561835808715
 31
0.0
  0
LINE
  5
F45F9
  8
VISIBLE
 10
1.165953570338762
 20
-1.615561835808686
 30
0.0
 11
1.188541323209753
 21
-1.184561835808684
 31
0.0
  0
LINE
  5
F45FA
  8
VISIBLE
 10
1.188541323209755
 20
-1.184561835808684
 30
0.0
 11
1.211129076080748
 21
-1.615561835808716
 31
0.0
  0
LINE
  5
F45FB
  8
VISIBLE
 10
1.245953570338762
 20
-1.615561835808686
 30
0.0
 11
1.268541323209753
 21
-1.184561835808684
 31
0.0
  0
LINE
  5
F45FC
  8
VISIBLE
 10
1.268541323209755
 20
-1.184561835808685
 30
0.0
 11
1.291129076080748
 21
-1.615561835808717
 31
0.0
  0
LINE
  5
F45FD
  8
VISIBLE
 10
1.325953570338762
 20
-1.615561835808687
 30
0.0
 11
1.348541323209753
 21
-1.184561835808685
 31
0.0
  0
LINE
  5
F45FE
  8
VISIBLE
 10
1.348541323209755
 20
-1.184561835808685
 30
0.0
 11
1.371129076080748
 21
-1.615561835808718
 31
0.0
  0
LINE
  5
F45FF
  8
VISIBLE
 10
1.405953570338762
 20
-1.615561835808687
 30
0.0
 11
1.428541323209753
 21
-1.184561835808686
 31
0.0
  0
LINE
  5
F4600
  8
VISIBLE
 10
1.428541323209755
 20
-1.184561835808686
 30
0.0
 11
1.451129076080748
 21
-1.615561835808718
 31
0.0
  0
LINE
  5
F4601
  8
VISIBLE
 10
1.485953570338763
 20
-1.615561835808688
 30
0.0
 11
1.508541323209753
 21
-1.184561835808692
 31
0.0
  0
LINE
  5
F4602
  8
VISIBLE
 10
1.508541323209755
 20
-1.184561835808692
 30
0.0
 11
1.531129076080748
 21
-1.615561835808719
 31
0.0
  0
LINE
  5
F4603
  8
VISIBLE
 10
1.451194348267069
 20
-1.046561835808681
 30
0.0
 11
1.468541323209756
 21
-0.7155618358086809
 31
0.0
  0
LINE
  5
F4604
  8
VISIBLE
 10
1.468541323209756
 20
-0.7155618358086809
 30
0.0
 11
1.485888298152442
 21
-1.046561835808681
 31
0.0
  0
LINE
  5
F4605
  8
VISIBLE
 10
1.45119434826707
 20
-1.184561835808687
 30
0.0
 11
1.468541323209756
 21
-1.515561835808681
 31
0.0
  0
LINE
  5
F4606
  8
VISIBLE
 10
1.468541323209756
 20
-1.515561835808681
 30
0.0
 11
1.485888298152442
 21
-1.184561835808687
 31
0.0
  0
LINE
  5
F4607
  8
VISIBLE
 10
1.451194348267069
 20
-1.046561835808681
 30
0.0
 11
1.451194348267069
 21
-1.184561835808687
 31
0.0
  0
LINE
  5
F4608
  8
VISIBLE
 10
1.485888298152442
 20
-1.046561835808681
 30
0.0
 11
1.485888298152442
 21
-1.184561835808687
 31
0.0
  0
LINE
  5
F4609
  8
VISIBLE
 10
1.371195113338046
 20
-1.046911708315566
 30
0.0
 11
1.388542088280733
 21
-0.7159117083155658
 31
0.0
  0
LINE
  5
F460A
  8
VISIBLE
 10
1.388542088280733
 20
-0.7159117083155658
 30
0.0
 11
1.40588906322342
 21
-1.046911708315566
 31
0.0
  0
LINE
  5
F460B
  8
VISIBLE
 10
1.371195113338047
 20
-1.046911708315566
 30
0.0
 11
1.371195113338047
 21
-1.184911708315572
 31
0.0
  0
LINE
  5
F460C
  8
VISIBLE
 10
1.40588906322342
 20
-1.046911708315566
 30
0.0
 11
1.40588906322342
 21
-1.184911708315572
 31
0.0
  0
LINE
  5
F460D
  8
VISIBLE
 10
1.371195113338047
 20
-1.184911708315572
 30
0.0
 11
1.388542088280733
 21
-1.515911708315566
 31
0.0
  0
LINE
  5
F460E
  8
VISIBLE
 10
1.388542088280733
 20
-1.515911708315566
 30
0.0
 11
1.40588906322342
 21
-1.184911708315572
 31
0.0
  0
LINE
  5
F460F
  8
VISIBLE
 10
1.291195878409024
 20
-1.047261580822451
 30
0.0
 11
1.30854285335171
 21
-0.7162615808224507
 31
0.0
  0
LINE
  5
F4610
  8
VISIBLE
 10
1.30854285335171
 20
-0.7162615808224507
 30
0.0
 11
1.325889828294397
 21
-1.047261580822451
 31
0.0
  0
LINE
  5
F4611
  8
VISIBLE
 10
1.291195878409024
 20
-1.047261580822451
 30
0.0
 11
1.291195878409024
 21
-1.185261580822456
 31
0.0
  0
LINE
  5
F4612
  8
VISIBLE
 10
1.325889828294397
 20
-1.047261580822451
 30
0.0
 11
1.325889828294397
 21
-1.185261580822456
 31
0.0
  0
LINE
  5
F4613
  8
VISIBLE
 10
1.291195878409024
 20
-1.185261580822456
 30
0.0
 11
1.30854285335171
 21
-1.516261580822451
 31
0.0
  0
LINE
  5
F4614
  8
VISIBLE
 10
1.30854285335171
 20
-1.516261580822451
 30
0.0
 11
1.325889828294397
 21
-1.185261580822456
 31
0.0
  0
LINE
  5
F4615
  8
VISIBLE
 10
1.211196643480001
 20
-1.047611453329336
 30
0.0
 11
1.228543618422688
 21
-0.7166114533293356
 31
0.0
  0
LINE
  5
F4616
  8
VISIBLE
 10
1.228543618422688
 20
-0.7166114533293356
 30
0.0
 11
1.245890593365375
 21
-1.047611453329336
 31
0.0
  0
LINE
  5
F4617
  8
VISIBLE
 10
1.211196643480001
 20
-1.047611453329336
 30
0.0
 11
1.211196643480001
 21
-1.185611453329341
 31
0.0
  0
LINE
  5
F4618
  8
VISIBLE
 10
1.245890593365374
 20
-1.047611453329336
 30
0.0
 11
1.245890593365374
 21
-1.185611453329341
 31
0.0
  0
LINE
  5
F4619
  8
VISIBLE
 10
1.211196643480001
 20
-1.185611453329341
 30
0.0
 11
1.228543618422688
 21
-1.516611453329336
 31
0.0
  0
LINE
  5
F461A
  8
VISIBLE
 10
1.228543618422688
 20
-1.516611453329336
 30
0.0
 11
1.245890593365375
 21
-1.185611453329341
 31
0.0
  0
LINE
  5
F461B
  8
VISIBLE
 10
1.131197408550979
 20
-1.047961325836221
 30
0.0
 11
1.148544383493665
 21
-0.7169613258362204
 31
0.0
  0
LINE
  5
F461C
  8
VISIBLE
 10
1.148544383493665
 20
-0.7169613258362204
 30
0.0
 11
1.165891358436352
 21
-1.047961325836221
 31
0.0
  0
LINE
  5
F461D
  8
VISIBLE
 10
1.131197408550979
 20
-1.047961325836221
 30
0.0
 11
1.131197408550979
 21
-1.185961325836226
 31
0.0
  0
LINE
  5
F461E
  8
VISIBLE
 10
1.165891358436352
 20
-1.047961325836221
 30
0.0
 11
1.165891358436352
 21
-1.185961325836226
 31
0.0
  0
LINE
  5
F461F
  8
VISIBLE
 10
1.131197408550979
 20
-1.185961325836226
 30
0.0
 11
1.148544383493665
 21
-1.51696132583622
 31
0.0
  0
LINE
  5
F4620
  8
VISIBLE
 10
1.148544383493665
 20
-1.516961325836221
 30
0.0
 11
1.165891358436352
 21
-1.185961325836226
 31
0.0
  0
LINE
  5
F4621
  8
VISIBLE
 10
1.051198173621956
 20
-1.048311198343106
 30
0.0
 11
1.068545148564642
 21
-0.7173111983431053
 31
0.0
  0
LINE
  5
F4622
  8
VISIBLE
 10
1.068545148564643
 20
-0.7173111983431053
 30
0.0
 11
1.085892123507329
 21
-1.048311198343106
 31
0.0
  0
LINE
  5
F4623
  8
VISIBLE
 10
1.051198173621956
 20
-1.048311198343106
 30
0.0
 11
1.051198173621956
 21
-1.186311198343111
 31
0.0
  0
LINE
  5
F4624
  8
VISIBLE
 10
1.085892123507329
 20
-1.048311198343106
 30
0.0
 11
1.085892123507329
 21
-1.186311198343111
 31
0.0
  0
LINE
  5
F4625
  8
VISIBLE
 10
1.051198173621956
 20
-1.186311198343111
 30
0.0
 11
1.068545148564643
 21
-1.517311198343105
 31
0.0
  0
LINE
  5
F4626
  8
VISIBLE
 10
1.068545148564643
 20
-1.517311198343106
 30
0.0
 11
1.085892123507329
 21
-1.186311198343111
 31
0.0
  0
LINE
  5
F4627
  8
VISIBLE
 10
0.9711989386929334
 20
-1.048661070849991
 30
0.0
 11
0.9885459136356198
 21
-0.7176610708499902
 31
0.0
  0
LINE
  5
F4628
  8
VISIBLE
 10
0.98854591363562
 20
-0.7176610708499902
 30
0.0
 11
1.005892888578307
 21
-1.048661070849991
 31
0.0
  0
LINE
  5
F4629
  8
VISIBLE
 10
0.9711989386929336
 20
-1.048661070849991
 30
0.0
 11
0.9711989386929336
 21
-1.186661070849996
 31
0.0
  0
LINE
  5
F462A
  8
VISIBLE
 10
1.005892888578306
 20
-1.048661070849991
 30
0.0
 11
1.005892888578306
 21
-1.186661070849996
 31
0.0
  0
LINE
  5
F462B
  8
VISIBLE
 10
0.9711989386929337
 20
-1.186661070849996
 30
0.0
 11
0.98854591363562
 21
-1.51766107084999
 31
0.0
  0
LINE
  5
F462C
  8
VISIBLE
 10
0.9885459136356203
 20
-1.51766107084999
 30
0.0
 11
1.005892888578307
 21
-1.186661070849996
 31
0.0
  0
LINE
  5
F462D
  8
VISIBLE
 10
0.8911997037639108
 20
-1.049010943356876
 30
0.0
 11
0.9085466787065972
 21
-0.718010943356875
 31
0.0
  0
LINE
  5
F462E
  8
VISIBLE
 10
0.9085466787065974
 20
-0.718010943356875
 30
0.0
 11
0.9258936536492842
 21
-1.049010943356876
 31
0.0
  0
LINE
  5
F462F
  8
VISIBLE
 10
0.891199703763911
 20
-1.049010943356876
 30
0.0
 11
0.891199703763911
 21
-1.187010943356881
 31
0.0
  0
LINE
  5
F4630
  8
VISIBLE
 10
0.925893653649284
 20
-1.049010943356876
 30
0.0
 11
0.925893653649284
 21
-1.187010943356881
 31
0.0
  0
LINE
  5
F4631
  8
VISIBLE
 10
0.8911997037639111
 20
-1.187010943356881
 30
0.0
 11
0.9085466787065974
 21
-1.518010943356875
 31
0.0
  0
LINE
  5
F4632
  8
VISIBLE
 10
0.9085466787065977
 20
-1.518010943356875
 30
0.0
 11
0.9258936536492842
 21
-1.187010943356881
 31
0.0
  0
LINE
  5
F4633
  8
VISIBLE
 10
0.8112004688348882
 20
-1.04936081586376
 30
0.0
 11
0.8285474437775746
 21
-0.7183608158637599
 31
0.0
  0
LINE
  5
F4634
  8
VISIBLE
 10
0.8285474437775749
 20
-0.7183608158637599
 30
0.0
 11
0.8458944187202616
 21
-1.04936081586376
 31
0.0
  0
LINE
  5
F4635
  8
VISIBLE
 10
0.8112004688348884
 20
-1.04936081586376
 30
0.0
 11
0.8112004688348884
 21
-1.187360815863766
 31
0.0
  0
LINE
  5
F4636
  8
VISIBLE
 10
0.8458944187202614
 20
-1.04936081586376
 30
0.0
 11
0.8458944187202614
 21
-1.187360815863766
 31
0.0
  0
LINE
  5
F4637
  8
VISIBLE
 10
0.8112004688348886
 20
-1.187360815863766
 30
0.0
 11
0.8285474437775749
 21
-1.51836081586376
 31
0.0
  0
LINE
  5
F4638
  8
VISIBLE
 10
0.828547443777575
 20
-1.51836081586376
 30
0.0
 11
0.8458944187202616
 21
-1.187360815863766
 31
0.0
  0
ENDSEC
  0
EOF
